<svg xmlns="http://www.w3.org/2000/svg" xmlns:xlink="http://www.w3.org/1999/xlink" width="500" zoomAndPan="magnify" viewBox="0 0 375 374.999991" height="500" preserveAspectRatio="xMidYMid meet" version="1.0"><defs><g/><clipPath id="b3b677eae5"><path d="M 0 79.140625 L 166.5 79.140625 L 166.5 245.640625 L 0 245.640625 Z M 0 79.140625 " clip-rule="nonzero"/></clipPath></defs><g clip-path="url(#b3b677eae5)"><path fill="#004aad" d="M 48.128906 107.609375 C 21.949219 123.25 0.390625 136.226562 0.261719 136.453125 C 0.128906 136.679688 0 150.339844 0 166.792969 L 0 196.777344 L 36.875 221.199219 L 73.753906 245.625 L 91.933594 234.46875 C 101.914062 228.324219 122.304688 215.804688 137.230469 206.597656 C 152.160156 197.429688 164.644531 189.753906 164.9375 189.558594 C 165.425781 189.203125 165.363281 188.972656 164.160156 187.054688 C 161.65625 183.152344 160.648438 179.316406 160.648438 173.820312 C 160.648438 168.160156 162.207031 163.054688 165.167969 158.925781 L 166.5 157.074219 L 164.84375 155.1875 C 163.933594 154.113281 163.054688 153.171875 162.894531 153.074219 C 162.40625 152.78125 161.234375 150.277344 160.78125 148.554688 C 159.738281 144.683594 160.519531 137.269531 162.570312 131.417969 C 163.21875 129.628906 163.445312 128.621094 163.21875 128.359375 C 162.992188 128.066406 163.414062 127.644531 164.714844 126.863281 L 166.503906 125.757812 L 131.964844 102.957031 C 112.941406 90.4375 97.039062 79.96875 96.582031 79.671875 C 95.769531 79.152344 95.3125 79.414062 48.128906 107.609375 Z M 150.207031 138.632812 C 149.6875 142.535156 150.011719 148.972656 150.890625 151.800781 C 151.28125 153.039062 151.640625 154.371094 151.738281 154.730469 C 151.867188 155.28125 146.308594 158.828125 112.84375 179.476562 L 73.785156 203.605469 L 42.503906 183.28125 C 25.300781 172.09375 11.023438 162.792969 10.796875 162.566406 C 10.503906 162.273438 10.40625 160 10.472656 152.679688 L 10.570312 143.21875 L 41.917969 163.511719 C 65.820312 178.988281 73.394531 183.734375 73.785156 183.507812 C 74.078125 183.34375 91.445312 172.550781 112.355469 159.507812 C 133.296875 146.4375 150.433594 135.804688 150.5 135.835938 C 150.53125 135.898438 150.402344 137.136719 150.207031 138.632812 Z M 150.433594 174.5 C 150.464844 179.410156 150.597656 180.839844 151.148438 182.859375 C 151.507812 184.191406 151.703125 185.394531 151.605469 185.492188 C 151.085938 186.011719 74.304688 233.035156 73.980469 233.035156 C 73.785156 233.035156 59.410156 223.636719 42.015625 212.125 L 10.40625 191.183594 L 10.40625 183.117188 C 10.40625 178.695312 10.472656 175.054688 10.570312 175.054688 C 10.667969 175.054688 23.738281 183.507812 39.609375 193.816406 C 55.480469 204.125 69.625 213.328125 71.054688 214.238281 L 73.65625 215.929688 L 111.867188 192.253906 C 132.875 179.25 150.140625 168.582031 150.242188 168.582031 C 150.335938 168.550781 150.402344 171.214844 150.433594 174.5 Z M 150.433594 174.5 " fill-opacity="1" fill-rule="nonzero"/></g><g fill="#000000" fill-opacity="1"><g transform="translate(173.800013, 147.85418)"><g><path d="M 17.203125 0.390625 C 14.503906 0.390625 12.070312 -0.0703125 9.90625 -1 C 7.738281 -1.925781 6.023438 -3.257812 4.765625 -5 C 3.515625 -6.738281 2.867188 -8.789062 2.828125 -11.15625 L 11.15625 -11.15625 C 11.269531 -9.5625 11.832031 -8.300781 12.84375 -7.375 C 13.863281 -6.457031 15.257812 -6 17.03125 -6 C 18.851562 -6 20.28125 -6.429688 21.3125 -7.296875 C 22.34375 -8.171875 22.859375 -9.3125 22.859375 -10.71875 C 22.859375 -11.863281 22.503906 -12.804688 21.796875 -13.546875 C 21.097656 -14.285156 20.222656 -14.863281 19.171875 -15.28125 C 18.117188 -15.707031 16.664062 -16.179688 14.8125 -16.703125 C 12.300781 -17.441406 10.257812 -18.171875 8.6875 -18.890625 C 7.113281 -19.617188 5.757812 -20.710938 4.625 -22.171875 C 3.5 -23.628906 2.9375 -25.582031 2.9375 -28.03125 C 2.9375 -30.320312 3.507812 -32.316406 4.65625 -34.015625 C 5.800781 -35.722656 7.410156 -37.03125 9.484375 -37.9375 C 11.554688 -38.84375 13.925781 -39.296875 16.59375 -39.296875 C 20.59375 -39.296875 23.835938 -38.320312 26.328125 -36.375 C 28.828125 -34.4375 30.207031 -31.726562 30.46875 -28.25 L 21.921875 -28.25 C 21.847656 -29.582031 21.28125 -30.679688 20.21875 -31.546875 C 19.164062 -32.421875 17.773438 -32.859375 16.046875 -32.859375 C 14.523438 -32.859375 13.3125 -32.46875 12.40625 -31.6875 C 11.5 -30.914062 11.046875 -29.789062 11.046875 -28.3125 C 11.046875 -27.269531 11.382812 -26.40625 12.0625 -25.71875 C 12.75 -25.039062 13.601562 -24.488281 14.625 -24.0625 C 15.644531 -23.632812 17.078125 -23.144531 18.921875 -22.59375 C 21.441406 -21.851562 23.492188 -21.113281 25.078125 -20.375 C 26.671875 -19.632812 28.039062 -18.519531 29.1875 -17.03125 C 30.332031 -15.550781 30.90625 -13.613281 30.90625 -11.21875 C 30.90625 -9.144531 30.367188 -7.21875 29.296875 -5.4375 C 28.222656 -3.664062 26.648438 -2.25 24.578125 -1.1875 C 22.515625 -0.132812 20.054688 0.390625 17.203125 0.390625 Z M 17.203125 0.390625 "/></g></g></g><g fill="#000000" fill-opacity="1"><g transform="translate(205.92641, 147.85418)"><g><path d="M 1.828125 -15.484375 C 1.828125 -18.585938 2.445312 -21.34375 3.6875 -23.75 C 4.925781 -26.15625 6.609375 -28.003906 8.734375 -29.296875 C 10.867188 -30.597656 13.25 -31.25 15.875 -31.25 C 18.164062 -31.25 20.171875 -30.785156 21.890625 -29.859375 C 23.609375 -28.929688 24.988281 -27.765625 26.03125 -26.359375 L 26.03125 -30.75 L 33.859375 -30.75 L 33.859375 0 L 26.03125 0 L 26.03125 -4.5 C 25.03125 -3.050781 23.648438 -1.851562 21.890625 -0.90625 C 20.140625 0.03125 18.113281 0.5 15.8125 0.5 C 13.226562 0.5 10.867188 -0.164062 8.734375 -1.5 C 6.609375 -2.832031 4.925781 -4.707031 3.6875 -7.125 C 2.445312 -9.550781 1.828125 -12.335938 1.828125 -15.484375 Z M 26.03125 -15.375 C 26.03125 -17.257812 25.660156 -18.875 24.921875 -20.21875 C 24.179688 -21.570312 23.179688 -22.609375 21.921875 -23.328125 C 20.660156 -24.054688 19.3125 -24.421875 17.875 -24.421875 C 16.425781 -24.421875 15.09375 -24.066406 13.875 -23.359375 C 12.65625 -22.660156 11.664062 -21.632812 10.90625 -20.28125 C 10.144531 -18.9375 9.765625 -17.335938 9.765625 -15.484375 C 9.765625 -13.628906 10.144531 -12.007812 10.90625 -10.625 C 11.664062 -9.238281 12.664062 -8.175781 13.90625 -7.4375 C 15.144531 -6.695312 16.46875 -6.328125 17.875 -6.328125 C 19.3125 -6.328125 20.660156 -6.6875 21.921875 -7.40625 C 23.179688 -8.125 24.179688 -9.160156 24.921875 -10.515625 C 25.660156 -11.867188 26.03125 -13.488281 26.03125 -15.375 Z M 26.03125 -15.375 "/></g></g></g><g fill="#000000" fill-opacity="1"><g transform="translate(241.881423, 147.85418)"><g><path d="M 7.765625 -34.40625 C 6.398438 -34.40625 5.265625 -34.835938 4.359375 -35.703125 C 3.453125 -36.578125 3 -37.664062 3 -38.96875 C 3 -40.257812 3.453125 -41.335938 4.359375 -42.203125 C 5.265625 -43.078125 6.398438 -43.515625 7.765625 -43.515625 C 9.140625 -43.515625 10.28125 -43.078125 11.1875 -42.203125 C 12.09375 -41.335938 12.546875 -40.257812 12.546875 -38.96875 C 12.546875 -37.664062 12.09375 -36.578125 11.1875 -35.703125 C 10.28125 -34.835938 9.140625 -34.40625 7.765625 -34.40625 Z M 11.59375 -30.75 L 11.59375 0 L 3.828125 0 L 3.828125 -30.75 Z M 11.59375 -30.75 "/></g></g></g><g fill="#000000" fill-opacity="1"><g transform="translate(255.641644, 147.85418)"><g><path d="M 30.796875 -27.078125 C 29.910156 -28.710938 28.691406 -29.953125 27.140625 -30.796875 C 25.585938 -31.648438 23.773438 -32.078125 21.703125 -32.078125 C 19.410156 -32.078125 17.375 -31.554688 15.59375 -30.515625 C 13.820312 -29.484375 12.4375 -28.003906 11.4375 -26.078125 C 10.4375 -24.160156 9.9375 -21.941406 9.9375 -19.421875 C 9.9375 -16.835938 10.441406 -14.582031 11.453125 -12.65625 C 12.472656 -10.726562 13.890625 -9.242188 15.703125 -8.203125 C 17.515625 -7.171875 19.625 -6.65625 22.03125 -6.65625 C 24.988281 -6.65625 27.410156 -7.441406 29.296875 -9.015625 C 31.191406 -10.585938 32.429688 -12.78125 33.015625 -15.59375 L 19.703125 -15.59375 L 19.703125 -21.53125 L 40.6875 -21.53125 L 40.6875 -14.765625 C 40.164062 -12.066406 39.050781 -9.566406 37.34375 -7.265625 C 35.644531 -4.972656 33.453125 -3.132812 30.765625 -1.75 C 28.085938 -0.363281 25.082031 0.328125 21.75 0.328125 C 18.019531 0.328125 14.644531 -0.507812 11.625 -2.1875 C 8.613281 -3.875 6.242188 -6.210938 4.515625 -9.203125 C 2.796875 -12.203125 1.9375 -15.609375 1.9375 -19.421875 C 1.9375 -23.234375 2.796875 -26.644531 4.515625 -29.65625 C 6.242188 -32.675781 8.613281 -35.023438 11.625 -36.703125 C 14.644531 -38.390625 18.003906 -39.234375 21.703125 -39.234375 C 26.066406 -39.234375 29.859375 -38.171875 33.078125 -36.046875 C 36.296875 -33.921875 38.515625 -30.929688 39.734375 -27.078125 Z M 30.796875 -27.078125 "/></g></g></g><g fill="#000000" fill-opacity="1"><g transform="translate(296.590476, 147.85418)"><g><path d="M 17.484375 0.5 C 14.523438 0.5 11.859375 -0.15625 9.484375 -1.46875 C 7.117188 -2.78125 5.257812 -4.640625 3.90625 -7.046875 C 2.5625 -9.453125 1.890625 -12.226562 1.890625 -15.375 C 1.890625 -18.519531 2.582031 -21.296875 3.96875 -23.703125 C 5.351562 -26.109375 7.25 -27.96875 9.65625 -29.28125 C 12.0625 -30.59375 14.742188 -31.25 17.703125 -31.25 C 20.660156 -31.25 23.34375 -30.59375 25.75 -29.28125 C 28.15625 -27.96875 30.050781 -26.109375 31.4375 -23.703125 C 32.820312 -21.296875 33.515625 -18.519531 33.515625 -15.375 C 33.515625 -12.226562 32.800781 -9.453125 31.375 -7.046875 C 29.957031 -4.640625 28.035156 -2.78125 25.609375 -1.46875 C 23.191406 -0.15625 20.484375 0.5 17.484375 0.5 Z M 17.484375 -6.265625 C 18.890625 -6.265625 20.210938 -6.609375 21.453125 -7.296875 C 22.691406 -7.984375 23.679688 -9.007812 24.421875 -10.375 C 25.160156 -11.75 25.53125 -13.414062 25.53125 -15.375 C 25.53125 -18.300781 24.757812 -20.546875 23.21875 -22.109375 C 21.6875 -23.679688 19.8125 -24.46875 17.59375 -24.46875 C 15.375 -24.46875 13.515625 -23.679688 12.015625 -22.109375 C 10.515625 -20.546875 9.765625 -18.300781 9.765625 -15.375 C 9.765625 -12.445312 10.492188 -10.195312 11.953125 -8.625 C 13.421875 -7.050781 15.265625 -6.265625 17.484375 -6.265625 Z M 17.484375 -6.265625 "/></g></g></g><g fill="#000000" fill-opacity="1"><g transform="translate(330.325988, 147.85418)"><g><path d="M 20.875 -31.1875 C 24.53125 -31.1875 27.488281 -30.03125 29.75 -27.71875 C 32.007812 -25.40625 33.140625 -22.175781 33.140625 -18.03125 L 33.140625 0 L 25.359375 0 L 25.359375 -16.984375 C 25.359375 -19.421875 24.75 -21.296875 23.53125 -22.609375 C 22.3125 -23.929688 20.644531 -24.59375 18.53125 -24.59375 C 16.382812 -24.59375 14.691406 -23.929688 13.453125 -22.609375 C 12.210938 -21.296875 11.59375 -19.421875 11.59375 -16.984375 L 11.59375 0 L 3.828125 0 L 3.828125 -30.75 L 11.59375 -30.75 L 11.59375 -26.921875 C 12.632812 -28.253906 13.957031 -29.296875 15.5625 -30.046875 C 17.175781 -30.804688 18.945312 -31.1875 20.875 -31.1875 Z M 20.875 -31.1875 "/></g></g></g><g fill="#000000" fill-opacity="1"><g transform="translate(173.800013, 212.819987)"><g><path d="M 17.828125 -15.03125 C 18.890625 -14.863281 19.859375 -14.429688 20.734375 -13.734375 C 21.617188 -13.035156 22.316406 -12.164062 22.828125 -11.125 C 23.347656 -10.09375 23.609375 -8.992188 23.609375 -7.828125 C 23.609375 -6.347656 23.226562 -5.015625 22.46875 -3.828125 C 21.71875 -2.640625 20.625 -1.703125 19.1875 -1.015625 C 17.75 -0.335938 16.054688 0 14.109375 0 L 3.21875 0 L 3.21875 -29.171875 L 13.6875 -29.171875 C 15.664062 -29.171875 17.351562 -28.84375 18.75 -28.1875 C 20.144531 -27.53125 21.191406 -26.644531 21.890625 -25.53125 C 22.585938 -24.414062 22.9375 -23.160156 22.9375 -21.765625 C 22.9375 -20.035156 22.46875 -18.601562 21.53125 -17.46875 C 20.601562 -16.34375 19.367188 -15.53125 17.828125 -15.03125 Z M 7.03125 -16.578125 L 13.4375 -16.578125 C 15.21875 -16.578125 16.597656 -16.992188 17.578125 -17.828125 C 18.554688 -18.671875 19.046875 -19.832031 19.046875 -21.3125 C 19.046875 -22.789062 18.554688 -23.945312 17.578125 -24.78125 C 16.597656 -25.613281 15.191406 -26.03125 13.359375 -26.03125 L 7.03125 -26.03125 Z M 13.765625 -3.140625 C 15.671875 -3.140625 17.148438 -3.582031 18.203125 -4.46875 C 19.265625 -5.363281 19.796875 -6.609375 19.796875 -8.203125 C 19.796875 -9.816406 19.238281 -11.09375 18.125 -12.03125 C 17.007812 -12.96875 15.515625 -13.4375 13.640625 -13.4375 L 7.03125 -13.4375 L 7.03125 -3.140625 Z M 13.765625 -3.140625 "/></g></g></g><g fill="#000000" fill-opacity="1"><g transform="translate(198.195905, 212.819987)"><g><path d="M 13.234375 0.375 C 11.078125 0.375 9.125 -0.109375 7.375 -1.078125 C 5.632812 -2.054688 4.269531 -3.445312 3.28125 -5.25 C 2.289062 -7.050781 1.796875 -9.140625 1.796875 -11.515625 C 1.796875 -13.859375 2.304688 -15.925781 3.328125 -17.71875 C 4.347656 -19.519531 5.734375 -20.898438 7.484375 -21.859375 C 9.242188 -22.828125 11.210938 -23.3125 13.390625 -23.3125 C 15.566406 -23.3125 17.535156 -22.828125 19.296875 -21.859375 C 21.054688 -20.898438 22.441406 -19.523438 23.453125 -17.734375 C 24.472656 -15.953125 24.984375 -13.878906 24.984375 -11.515625 C 24.984375 -9.140625 24.457031 -7.050781 23.40625 -5.25 C 22.363281 -3.445312 20.953125 -2.054688 19.171875 -1.078125 C 17.390625 -0.109375 15.410156 0.375 13.234375 0.375 Z M 13.234375 -2.96875 C 14.597656 -2.96875 15.878906 -3.285156 17.078125 -3.921875 C 18.273438 -4.566406 19.242188 -5.53125 19.984375 -6.8125 C 20.722656 -8.101562 21.09375 -9.671875 21.09375 -11.515625 C 21.09375 -13.359375 20.726562 -14.921875 20 -16.203125 C 19.28125 -17.484375 18.332031 -18.4375 17.15625 -19.0625 C 15.988281 -19.695312 14.722656 -20.015625 13.359375 -20.015625 C 11.960938 -20.015625 10.679688 -19.695312 9.515625 -19.0625 C 8.359375 -18.4375 7.429688 -17.484375 6.734375 -16.203125 C 6.035156 -14.921875 5.6875 -13.359375 5.6875 -11.515625 C 5.6875 -9.640625 6.03125 -8.0625 6.71875 -6.78125 C 7.40625 -5.5 8.316406 -4.539062 9.453125 -3.90625 C 10.597656 -3.28125 11.859375 -2.96875 13.234375 -2.96875 Z M 13.234375 -2.96875 "/></g></g></g><g fill="#000000" fill-opacity="1"><g transform="translate(223.721649, 212.819987)"><g><path d="M 13.234375 0.375 C 11.078125 0.375 9.125 -0.109375 7.375 -1.078125 C 5.632812 -2.054688 4.269531 -3.445312 3.28125 -5.25 C 2.289062 -7.050781 1.796875 -9.140625 1.796875 -11.515625 C 1.796875 -13.859375 2.304688 -15.925781 3.328125 -17.71875 C 4.347656 -19.519531 5.734375 -20.898438 7.484375 -21.859375 C 9.242188 -22.828125 11.210938 -23.3125 13.390625 -23.3125 C 15.566406 -23.3125 17.535156 -22.828125 19.296875 -21.859375 C 21.054688 -20.898438 22.441406 -19.523438 23.453125 -17.734375 C 24.472656 -15.953125 24.984375 -13.878906 24.984375 -11.515625 C 24.984375 -9.140625 24.457031 -7.050781 23.40625 -5.25 C 22.363281 -3.445312 20.953125 -2.054688 19.171875 -1.078125 C 17.390625 -0.109375 15.410156 0.375 13.234375 0.375 Z M 13.234375 -2.96875 C 14.597656 -2.96875 15.878906 -3.285156 17.078125 -3.921875 C 18.273438 -4.566406 19.242188 -5.53125 19.984375 -6.8125 C 20.722656 -8.101562 21.09375 -9.671875 21.09375 -11.515625 C 21.09375 -13.359375 20.726562 -14.921875 20 -16.203125 C 19.28125 -17.484375 18.332031 -18.4375 17.15625 -19.0625 C 15.988281 -19.695312 14.722656 -20.015625 13.359375 -20.015625 C 11.960938 -20.015625 10.679688 -19.695312 9.515625 -19.0625 C 8.359375 -18.4375 7.429688 -17.484375 6.734375 -16.203125 C 6.035156 -14.921875 5.6875 -13.359375 5.6875 -11.515625 C 5.6875 -9.640625 6.03125 -8.0625 6.71875 -6.78125 C 7.40625 -5.5 8.316406 -4.539062 9.453125 -3.90625 C 10.597656 -3.28125 11.859375 -2.96875 13.234375 -2.96875 Z M 13.234375 -2.96875 "/></g></g></g><g fill="#000000" fill-opacity="1"><g transform="translate(249.247396, 212.819987)"><g><path d="M 16.03125 0 L 7.03125 -10.125 L 7.03125 0 L 3.21875 0 L 3.21875 -30.96875 L 7.03125 -30.96875 L 7.03125 -12.765625 L 15.859375 -22.9375 L 21.1875 -22.9375 L 10.375 -11.515625 L 21.21875 0 Z M 16.03125 0 "/></g></g></g><g fill="#000000" fill-opacity="1"><g transform="translate(269.542374, 212.819987)"><g><path d="M 11.34375 0.375 C 9.582031 0.375 8.003906 0.078125 6.609375 -0.515625 C 5.210938 -1.117188 4.109375 -1.957031 3.296875 -3.03125 C 2.492188 -4.101562 2.050781 -5.335938 1.96875 -6.734375 L 5.90625 -6.734375 C 6.007812 -5.585938 6.539062 -4.648438 7.5 -3.921875 C 8.46875 -3.203125 9.734375 -2.84375 11.296875 -2.84375 C 12.753906 -2.84375 13.898438 -3.160156 14.734375 -3.796875 C 15.566406 -4.441406 15.984375 -5.253906 15.984375 -6.234375 C 15.984375 -7.242188 15.535156 -7.988281 14.640625 -8.46875 C 13.753906 -8.957031 12.375 -9.441406 10.5 -9.921875 C 8.800781 -10.367188 7.414062 -10.820312 6.34375 -11.28125 C 5.269531 -11.738281 4.347656 -12.421875 3.578125 -13.328125 C 2.804688 -14.234375 2.421875 -15.425781 2.421875 -16.90625 C 2.421875 -18.082031 2.769531 -19.15625 3.46875 -20.125 C 4.164062 -21.101562 5.15625 -21.878906 6.4375 -22.453125 C 7.726562 -23.023438 9.195312 -23.3125 10.84375 -23.3125 C 13.382812 -23.3125 15.4375 -22.671875 17 -21.390625 C 18.5625 -20.109375 19.394531 -18.347656 19.5 -16.109375 L 15.703125 -16.109375 C 15.617188 -17.316406 15.132812 -18.28125 14.25 -19 C 13.375 -19.726562 12.195312 -20.09375 10.71875 -20.09375 C 9.351562 -20.09375 8.265625 -19.796875 7.453125 -19.203125 C 6.640625 -18.617188 6.234375 -17.851562 6.234375 -16.90625 C 6.234375 -16.15625 6.476562 -15.535156 6.96875 -15.046875 C 7.457031 -14.554688 8.070312 -14.164062 8.8125 -13.875 C 9.550781 -13.582031 10.578125 -13.253906 11.890625 -12.890625 C 13.535156 -12.441406 14.875 -12 15.90625 -11.5625 C 16.9375 -11.132812 17.820312 -10.488281 18.5625 -9.625 C 19.300781 -8.757812 19.6875 -7.628906 19.71875 -6.234375 C 19.71875 -4.984375 19.367188 -3.851562 18.671875 -2.84375 C 17.972656 -1.84375 16.988281 -1.054688 15.71875 -0.484375 C 14.445312 0.0859375 12.988281 0.375 11.34375 0.375 Z M 11.34375 0.375 "/></g></g></g><g fill="#000000" fill-opacity="1"><g transform="translate(290.130275, 212.819987)"><g><path d="M 7.875 -19.796875 L 7.875 -6.28125 C 7.875 -5.164062 8.109375 -4.375 8.578125 -3.90625 C 9.054688 -3.445312 9.878906 -3.21875 11.046875 -3.21875 L 13.859375 -3.21875 L 13.859375 0 L 10.421875 0 C 8.296875 0 6.703125 -0.488281 5.640625 -1.46875 C 4.585938 -2.445312 4.0625 -4.050781 4.0625 -6.28125 L 4.0625 -19.796875 L 1.09375 -19.796875 L 1.09375 -22.9375 L 4.0625 -22.9375 L 4.0625 -28.71875 L 7.875 -28.71875 L 7.875 -22.9375 L 13.859375 -22.9375 L 13.859375 -19.796875 Z M 7.875 -19.796875 "/></g></g></g><g fill="#000000" fill-opacity="1"><g transform="translate(304.106476, 212.819987)"><g><path d="M 13.234375 0.375 C 11.078125 0.375 9.125 -0.109375 7.375 -1.078125 C 5.632812 -2.054688 4.269531 -3.445312 3.28125 -5.25 C 2.289062 -7.050781 1.796875 -9.140625 1.796875 -11.515625 C 1.796875 -13.859375 2.304688 -15.925781 3.328125 -17.71875 C 4.347656 -19.519531 5.734375 -20.898438 7.484375 -21.859375 C 9.242188 -22.828125 11.210938 -23.3125 13.390625 -23.3125 C 15.566406 -23.3125 17.535156 -22.828125 19.296875 -21.859375 C 21.054688 -20.898438 22.441406 -19.523438 23.453125 -17.734375 C 24.472656 -15.953125 24.984375 -13.878906 24.984375 -11.515625 C 24.984375 -9.140625 24.457031 -7.050781 23.40625 -5.25 C 22.363281 -3.445312 20.953125 -2.054688 19.171875 -1.078125 C 17.390625 -0.109375 15.410156 0.375 13.234375 0.375 Z M 13.234375 -2.96875 C 14.597656 -2.96875 15.878906 -3.285156 17.078125 -3.921875 C 18.273438 -4.566406 19.242188 -5.53125 19.984375 -6.8125 C 20.722656 -8.101562 21.09375 -9.671875 21.09375 -11.515625 C 21.09375 -13.359375 20.726562 -14.921875 20 -16.203125 C 19.28125 -17.484375 18.332031 -18.4375 17.15625 -19.0625 C 15.988281 -19.695312 14.722656 -20.015625 13.359375 -20.015625 C 11.960938 -20.015625 10.679688 -19.695312 9.515625 -19.0625 C 8.359375 -18.4375 7.429688 -17.484375 6.734375 -16.203125 C 6.035156 -14.921875 5.6875 -13.359375 5.6875 -11.515625 C 5.6875 -9.640625 6.03125 -8.0625 6.71875 -6.78125 C 7.40625 -5.5 8.316406 -4.539062 9.453125 -3.90625 C 10.597656 -3.28125 11.859375 -2.96875 13.234375 -2.96875 Z M 13.234375 -2.96875 "/></g></g></g><g fill="#000000" fill-opacity="1"><g transform="translate(329.632218, 212.819987)"><g><path d="M 7.03125 -19.21875 C 7.695312 -20.53125 8.648438 -21.546875 9.890625 -22.265625 C 11.140625 -22.992188 12.65625 -23.359375 14.4375 -23.359375 L 14.4375 -19.421875 L 13.4375 -19.421875 C 9.164062 -19.421875 7.03125 -17.101562 7.03125 -12.46875 L 7.03125 0 L 3.21875 0 L 3.21875 -22.9375 L 7.03125 -22.9375 Z M 7.03125 -19.21875 "/></g></g></g><g fill="#000000" fill-opacity="1"><g transform="translate(343.985052, 212.819987)"><g><path d="M 24.15625 -12.34375 C 24.15625 -11.625 24.113281 -10.859375 24.03125 -10.046875 L 5.6875 -10.046875 C 5.832031 -7.785156 6.609375 -6.019531 8.015625 -4.75 C 9.421875 -3.476562 11.128906 -2.84375 13.140625 -2.84375 C 14.785156 -2.84375 16.160156 -3.226562 17.265625 -4 C 18.367188 -4.769531 19.144531 -5.796875 19.59375 -7.078125 L 23.6875 -7.078125 C 23.070312 -4.867188 21.84375 -3.070312 20 -1.6875 C 18.164062 -0.3125 15.878906 0.375 13.140625 0.375 C 10.960938 0.375 9.015625 -0.109375 7.296875 -1.078125 C 5.585938 -2.054688 4.242188 -3.445312 3.265625 -5.25 C 2.285156 -7.050781 1.796875 -9.140625 1.796875 -11.515625 C 1.796875 -13.878906 2.269531 -15.953125 3.21875 -17.734375 C 4.164062 -19.523438 5.5 -20.898438 7.21875 -21.859375 C 8.9375 -22.828125 10.910156 -23.3125 13.140625 -23.3125 C 15.316406 -23.3125 17.242188 -22.835938 18.921875 -21.890625 C 20.597656 -20.941406 21.890625 -19.632812 22.796875 -17.96875 C 23.703125 -16.3125 24.15625 -14.4375 24.15625 -12.34375 Z M 20.21875 -13.140625 C 20.21875 -14.597656 19.894531 -15.847656 19.25 -16.890625 C 18.613281 -17.929688 17.742188 -18.722656 16.640625 -19.265625 C 15.535156 -19.816406 14.3125 -20.09375 12.96875 -20.09375 C 11.050781 -20.09375 9.414062 -19.476562 8.0625 -18.25 C 6.707031 -17.019531 5.929688 -15.316406 5.734375 -13.140625 Z M 20.21875 -13.140625 "/></g></g></g></svg>